<?xml version="1.0" ?><svg height="32" id="svg4152" version="1.1" viewBox="0 0 32 32" width="32" xmlns="http://www.w3.org/2000/svg" xmlns:cc="http://creativecommons.org/ns#" xmlns:dc="http://purl.org/dc/elements/1.1/" xmlns:inkscape="http://www.inkscape.org/namespaces/inkscape" xmlns:rdf="http://www.w3.org/1999/02/22-rdf-syntax-ns#" xmlns:sodipodi="http://sodipodi.sourceforge.net/DTD/sodipodi-0.dtd" xmlns:svg="http://www.w3.org/2000/svg"><defs id="defs4154"/><g id="layer1"><g id="g6163" transform="matrix(1.0031865,0,0,1.0031865,-0.00604254,4.2244431)"><path d="m 23.29292,3.4632441 a 7.7548475,7.7548475 0 0 1 6.12681,7.3863269 7.7548475,7.7548475 0 0 1 -5.74527,7.686841" id="path4543" style="opacity:1;fill:none;fill-opacity:1;stroke:#0e6ea1;stroke-width:1;stroke-linecap:round;stroke-linejoin:round;stroke-miterlimit:4;stroke-dasharray:none;stroke-opacity:1"/><path d="m 2.39632,7.7295531 3.98019,0 6.4153,-4.722242 0,15.9853829 -6.4153,-4.863141 -3.98019,0 z" id="path4570" style="opacity:1;fill:none;fill-opacity:1;stroke:#0e6ea1;stroke-width:1;stroke-linecap:round;stroke-linejoin:round;stroke-miterlimit:4;stroke-dasharray:none;stroke-opacity:1"/><path d="m 7.8778946,-17.146616 a 6.5,6.5 0 0 1 7.1923124,-4.4464 6.5,6.5 0 0 1 5.499987,6.422614" id="path5268" style="opacity:1;fill:none;fill-opacity:1;stroke:#0e6ea1;stroke-width:1;stroke-linecap:round;stroke-linejoin:round;stroke-miterlimit:4;stroke-dasharray:none;stroke-opacity:1" transform="matrix(0.18443748,0.98284425,-0.98284425,0.18443748,0,0)"/><path d="m 8.8294726,-12.484744 a 4.6824799,4.6824799 0 0 1 5.1812094,-3.203104 4.6824799,4.6824799 0 0 1 3.962089,4.626733" id="path6161" style="opacity:1;fill:none;fill-opacity:1;stroke:#0e6ea1;stroke-width:0.72038144;stroke-linecap:round;stroke-linejoin:round;stroke-miterlimit:4;stroke-dasharray:none;stroke-opacity:1" transform="matrix(0.18443748,0.98284425,-0.98284425,0.18443748,0,0)"/></g></g></svg>